<svg width="38" height="35" viewBox="0 0 38 35" fill="none" xmlns="http://www.w3.org/2000/svg">
<path d="M34.3546 0H3.55392C1.59112 0 0 1.95872 0 4.375V30.625C0 33.0413 1.59112 35 3.55392 35H34.3546C36.3174 35 37.9085 33.0413 37.9085 30.625V4.375C37.9085 1.95872 36.3174 0 34.3546 0ZM34.3546 4.375V8.0942C32.6945 9.75844 30.0478 12.3463 24.3897 17.8003C23.1428 19.0077 20.6729 21.9085 18.9542 21.8746C17.2359 21.9088 14.7651 19.0073 13.5187 17.8003C7.86157 12.3471 5.21427 9.75871 3.55392 8.0942V4.375H34.3546ZM3.55392 30.625V13.7082C5.25047 15.3717 7.65641 17.706 11.3235 21.241C12.9418 22.8092 15.7759 26.271 18.9542 26.2499C22.117 26.271 24.9151 22.8594 26.5843 21.2417C30.2514 17.7068 32.6579 15.3718 34.3546 13.7082V30.625H3.55392Z" fill="#402E32"/>
</svg>
