<svg width="38" height="35" viewBox="0 0 38 35" fill="none" xmlns="http://www.w3.org/2000/svg">
<path d="M35.009 27.6719C36.8186 25.5547 37.9044 22.8984 37.9044 20C37.9044 13.75 32.8703 8.58594 26.3095 7.66406C24.2366 3.16406 19.367 0 13.688 0C6.12693 0 0.000443209 5.59375 0.000443209 12.5C0.000443209 15.3906 1.08623 18.0469 2.89588 20.1719C1.88906 22.5703 0.44134 24.4297 0.415018 24.4609C0.000443221 24.9844 -0.118007 25.75 0.125474 26.4141C0.362373 27.0781 0.915139 27.5078 1.52055 27.5078C5.04114 27.5078 7.88394 25.9297 9.75939 24.4766C10.3648 24.6406 10.99 24.7656 11.6283 24.8594C13.6946 29.3438 18.5444 32.5 24.2169 32.5C25.5856 32.5 26.9017 32.3125 28.152 31.9688C30.0275 33.4141 32.8637 35 36.3909 35C36.9963 35 37.5425 34.5703 37.7859 33.9062C38.0228 33.2422 37.911 32.4766 37.4964 31.9531C37.4701 31.9297 36.0158 30.0703 35.009 27.6719ZM9.16056 20.4609L8.03529 21.3281C7.10743 22.0391 6.15984 22.6016 5.19908 23C5.37675 22.6328 5.55443 22.2422 5.72552 21.8438L6.7455 19.4141L5.11353 17.5C4.22515 16.4531 3.15911 14.7422 3.15911 12.5C3.15911 7.75781 7.98265 3.75 13.688 3.75C19.3933 3.75 24.2169 7.75781 24.2169 12.5C24.2169 17.2422 19.3933 21.25 13.688 21.25C12.6022 21.25 11.5164 21.1016 10.4635 20.8125L9.16056 20.4609ZM32.7913 25L31.1659 26.9062L32.1859 29.3359C32.357 29.7344 32.5347 30.125 32.7123 30.4922C31.7516 30.0938 30.804 29.5312 29.8761 28.8203L28.7509 27.9531L27.4413 28.3125C26.3884 28.6016 25.3026 28.75 24.2169 28.75C20.6634 28.75 17.4915 27.1797 15.5766 24.8672C22.2427 24.0234 27.3755 18.8203 27.3755 12.5C27.3755 12.2344 27.3492 11.9766 27.3295 11.7188C31.5673 12.8516 34.7457 16.1562 34.7457 20C34.7457 22.2422 33.6797 23.9531 32.7913 25Z" fill="#402E32"/>
</svg>
