<svg width="25" height="35" viewBox="0 0 25 35" fill="none" xmlns="http://www.w3.org/2000/svg">
<path d="M24.8775 24.6094V1.64062C24.8775 0.731445 24.2833 0 23.5447 0H5.33088C2.38779 0 0 2.93945 0 6.5625V28.4375C0 32.0605 2.38779 35 5.33088 35H23.5447C24.2833 35 24.8775 34.2686 24.8775 33.3594V32.2656C24.8775 31.7529 24.6831 31.2881 24.3832 30.9873C24.15 29.9346 24.15 26.9336 24.3832 25.8809C24.6831 25.5869 24.8775 25.1221 24.8775 24.6094ZM7.10784 9.16016C7.10784 8.93457 7.25777 8.75 7.44102 8.75H19.2134C19.3966 8.75 19.5466 8.93457 19.5466 9.16016V10.5273C19.5466 10.7529 19.3966 10.9375 19.2134 10.9375H7.44102C7.25777 10.9375 7.10784 10.7529 7.10784 10.5273V9.16016ZM7.10784 13.5352C7.10784 13.3096 7.25777 13.125 7.44102 13.125H19.2134C19.3966 13.125 19.5466 13.3096 19.5466 13.5352V14.9023C19.5466 15.1279 19.3966 15.3125 19.2134 15.3125H7.44102C7.25777 15.3125 7.10784 15.1279 7.10784 14.9023V13.5352ZM21.1792 30.625H5.33088C4.348 30.625 3.55392 29.6475 3.55392 28.4375C3.55392 27.2344 4.35355 26.25 5.33088 26.25H21.1792C21.0736 27.4189 21.0736 29.4561 21.1792 30.625Z" fill="#402E32"/>
</svg>
