<svg width="36" height="35" viewBox="0 0 36 35" fill="none" xmlns="http://www.w3.org/2000/svg">
<path d="M32.0181 17.5H3.31222C2.43376 17.5 1.59129 17.8951 0.970126 18.5983C0.348965 19.3016 0 20.2554 0 21.25C0 22.2446 0.348965 23.1984 0.970126 23.9017C1.59129 24.6049 2.43376 25 3.31222 25H32.0181C32.8965 25 33.739 24.6049 34.3602 23.9017C34.9813 23.1984 35.3303 22.2446 35.3303 21.25C35.3303 20.2554 34.9813 19.3016 34.3602 18.5983C33.739 17.8951 32.8965 17.5 32.0181 17.5ZM33.1222 27.5H2.20814C1.91533 27.5 1.6345 27.6317 1.42745 27.8661C1.22039 28.1005 1.10407 28.4185 1.10407 28.75V30C1.10407 31.3261 1.56936 32.5979 2.39757 33.5355C3.22579 34.4732 4.34909 35 5.52036 35H29.8099C30.9812 35 32.1045 34.4732 32.9327 33.5355C33.761 32.5979 34.2262 31.3261 34.2262 30V28.75C34.2262 28.4185 34.1099 28.1005 33.9029 27.8661C33.6958 27.6317 33.415 27.5 33.1222 27.5ZM4.04642 15H31.2839C33.6694 15 35.0529 11.5703 33.6866 9.07187C30.914 4 24.8106 0.0078125 17.6652 0C10.5204 0.0078125 4.41629 4 1.64369 9.07109C0.276018 11.5695 1.66094 15 4.04642 15ZM26.4977 6.25C26.7161 6.25 26.9296 6.32331 27.1111 6.46066C27.2927 6.59801 27.4342 6.79324 27.5178 7.02165C27.6013 7.25005 27.6232 7.50139 27.5806 7.74386C27.538 7.98634 27.4328 8.20907 27.2784 8.38388C27.124 8.5587 26.9273 8.67775 26.7131 8.72598C26.499 8.77421 26.277 8.74946 26.0752 8.65485C25.8735 8.56024 25.701 8.40002 25.5797 8.19446C25.4584 7.9889 25.3937 7.74723 25.3937 7.5C25.3937 7.16848 25.51 6.85054 25.717 6.61612C25.9241 6.3817 26.2049 6.25 26.4977 6.25ZM17.6652 3.75C17.8835 3.75 18.097 3.82331 18.2785 3.96066C18.4601 4.09801 18.6016 4.29324 18.6852 4.52165C18.7687 4.75005 18.7906 5.00139 18.748 5.24386C18.7054 5.48634 18.6003 5.70907 18.4459 5.88388C18.2914 6.0587 18.0947 6.17775 17.8806 6.22598C17.6664 6.27421 17.4444 6.24946 17.2426 6.15485C17.0409 6.06024 16.8685 5.90002 16.7472 5.69446C16.6258 5.4889 16.5611 5.24723 16.5611 5C16.5611 4.66848 16.6774 4.35054 16.8845 4.11612C17.0915 3.8817 17.3723 3.75 17.6652 3.75ZM8.83258 6.25C9.05094 6.25 9.2644 6.32331 9.44597 6.46066C9.62753 6.59801 9.76904 6.79324 9.85261 7.02165C9.93617 7.25005 9.95804 7.50139 9.91544 7.74386C9.87284 7.98634 9.76768 8.20907 9.61327 8.38388C9.45887 8.5587 9.26214 8.67775 9.04797 8.72598C8.8338 8.77421 8.61181 8.74946 8.41007 8.65485C8.20832 8.56024 8.03589 8.40002 7.91458 8.19446C7.79326 7.9889 7.72851 7.74723 7.72851 7.5C7.72851 7.16848 7.84483 6.85054 8.05188 6.61612C8.25893 6.3817 8.53976 6.25 8.83258 6.25Z" fill="#402E32"/>
</svg>
