<svg width="70" height="70" viewBox="0 0 70 70" fill="None" xmlns="http://www.w3.org/2000/svg">
<path d="M31.6116 17.27C32.4273 13.6588 37.5727 13.6588 38.3884 17.27C39.0693 20.2842 42.5282 21.7169 45.141 20.067C48.2713 18.0903 51.9097 21.7287 49.933 24.859C48.2831 27.4718 49.7158 30.9307 52.73 31.6116C56.3412 32.4273 56.3412 37.5727 52.73 38.3884C49.7158 39.0693 48.2831 42.5282 49.933 45.141C51.9097 48.2713 48.2713 51.9097 45.141 49.933C42.5282 48.2831 39.0693 49.7158 38.3884 52.73C37.5727 56.3412 32.4273 56.3412 31.6116 52.73C30.9307 49.7158 27.4718 48.2831 24.859 49.933C21.7287 51.9097 18.0903 48.2713 20.067 45.141C21.7169 42.5282 20.2842 39.0693 17.27 38.3884C13.6588 37.5727 13.6588 32.4273 17.27 31.6116C20.2842 30.9307 21.7169 27.4718 20.067 24.859C18.0903 21.7287 21.7287 18.0903 24.859 20.067C27.4718 21.7169 30.9307 20.2842 31.6116 17.27Z" stroke="#402E32"/>
<path d="M28.8426 25.4684C30.1529 25.4684 31.1457 25.9567 31.8212 26.9332C32.4966 27.9017 32.8343 29.2729 32.8343 31.047C32.8343 32.813 32.5088 34.1924 31.8578 35.1852C31.2149 36.178 30.2098 36.6745 28.8426 36.6745C27.565 36.6745 26.5925 36.178 25.9252 35.1852C25.2578 34.1924 24.9242 32.813 24.9242 31.047C24.9242 29.2729 25.2375 27.9017 25.8641 26.9332C26.4989 25.9567 27.4917 25.4684 28.8426 25.4684ZM28.8549 27.4704C28.3259 27.4704 27.9353 27.7674 27.683 28.3615C27.4388 28.9555 27.3168 29.8548 27.3168 31.0592C27.3168 32.2555 27.4388 33.1588 27.683 33.7692C27.9353 34.3714 28.3259 34.6725 28.8549 34.6725C29.392 34.6725 29.7907 34.3714 30.0511 33.7692C30.3197 33.167 30.454 32.2636 30.454 31.0592C30.454 29.8629 30.3238 28.9677 30.0633 28.3737C29.8029 27.7715 29.4001 27.4704 28.8549 27.4704ZM40.8299 25.7247L30.93 43.5714H28.5741L38.474 25.7247H40.8299ZM40.5004 32.6095C41.8106 32.6095 42.8034 33.0978 43.4789 34.0744C44.1625 35.0428 44.5043 36.414 44.5043 38.1881C44.5043 39.9459 44.1787 41.3213 43.5277 42.3141C42.8848 43.3069 41.8757 43.8034 40.5004 43.8034C39.2227 43.8034 38.2502 43.3069 37.5829 42.3141C36.9156 41.3213 36.5819 39.9459 36.5819 38.1881C36.5819 36.414 36.8952 35.0428 37.5218 34.0744C38.1566 33.0978 39.1494 32.6095 40.5004 32.6095ZM40.5126 34.6115C39.9836 34.6115 39.593 34.9085 39.3407 35.5026C39.0965 36.0967 38.9745 36.9959 38.9745 38.2003C38.9745 39.3966 39.0965 40.2999 39.3407 40.9103C39.593 41.5125 39.9836 41.8136 40.5126 41.8136C41.0578 41.8136 41.4606 41.5166 41.7211 40.9225C41.9815 40.3203 42.1117 39.4129 42.1117 38.2003C42.1117 37.004 41.9815 36.1089 41.7211 35.5148C41.4606 34.9126 41.0578 34.6115 40.5126 34.6115Z" fill="#402E32"/>
</svg>
